<svg width="75" height="75" viewBox="0 0 75 75" fill="none" xmlns="http://www.w3.org/2000/svg">
<g clip-path="url(#clip0)">
<path d="M18.666 19.8904C19.8619 19.6838 20.6635 18.5474 20.4576 17.3515C19.2874 10.5709 24.5179 4.39453 31.3552 4.39453C38.1719 4.39453 43.4115 10.5417 42.2574 17.3246C42.0543 18.5211 42.8588 19.6558 44.0553 19.8595C45.2517 20.0638 46.3864 19.2581 46.5901 18.0616C48.1957 8.62083 40.9093 0 31.3552 0C21.812 0 14.4906 8.61969 16.1271 18.0988C16.3337 19.2982 17.4747 20.0964 18.666 19.8904Z" fill="white"/>
<path d="M54.7359 35.2507C53.0891 32.0183 49.1666 30.728 45.9468 32.321C44.45 29.3828 41.0265 27.9946 37.9148 29.0749V15.6184C37.9148 12.0318 35.0326 9.03517 31.489 8.93789C27.7759 8.83261 24.6992 11.8064 24.6992 15.5274V49.3773L22.118 46.6742C19.6403 44.0804 15.4918 43.8979 12.8694 46.2685C10.1022 48.7696 9.96433 53.0285 12.5124 55.7053L27.3473 71.5285C29.4159 73.7343 32.3375 75.0001 35.3622 75.0001H53.2545C59.3124 75.0001 64.2408 70.0717 64.2408 64.0137V41.1622C64.2408 36.2944 59.1064 33.0884 54.7359 35.2507ZM59.8463 64.0137C59.8463 67.6484 56.8891 70.6055 53.2545 70.6055H35.3622C33.5472 70.6055 31.7945 69.8462 30.5534 68.5221C30.5002 68.4661 15.751 52.7344 15.6978 52.6784C14.8481 51.788 14.8887 50.3672 15.8157 49.5284C16.6894 48.7393 18.0908 48.8206 18.9394 49.7092L25.3069 56.3771C26.6721 57.8076 29.0931 56.8371 29.0931 54.8602V15.5274C29.0931 14.2926 30.1174 13.2958 31.3694 13.3307C32.5555 13.3633 33.5203 14.3893 33.5203 15.6184C33.5203 39.7963 33.4791 28.8369 33.4791 41.8946C33.4791 43.1117 34.4701 44.1033 35.6969 44.0907C36.922 44.1033 37.9148 43.1122 37.9148 41.8946V34.8851C38.1105 33.8723 39.002 33.1055 40.0709 33.1055C41.2822 33.1055 42.2681 34.0914 42.2681 35.3028V41.8946C42.2681 43.1082 43.2518 44.0919 44.4654 44.0919C45.6791 44.0919 46.6627 43.1082 46.6627 41.8946V38.2325C46.6627 37.0211 47.6486 36.0352 48.8599 36.0352C50.0713 36.0352 51.0572 37.0211 51.0572 38.2325V41.8946C51.0572 43.1082 52.0408 44.0919 53.2545 44.0919C54.4681 44.0919 55.4517 43.1082 55.4517 41.8946V41.1622C55.4517 39.9508 56.4376 38.9649 57.649 38.9649C58.8604 38.9649 59.8463 39.9508 59.8463 41.1622V64.0137Z" fill="white"/>
</g>
<defs>
<clipPath id="clip0">
<rect width="75" height="75" fill="white"/>
</clipPath>
</defs>
</svg>
